<svg id="Layer_1" data-name="Layer 1" xmlns="http://www.w3.org/2000/svg" viewBox="0 0 18 18"><defs><style>.cls-1{fill:#66a6b5;}.cls-2{fill:#fff;}.cls-3{fill:#005b9c;}</style></defs><title>strat-2</title><rect class="cls-1" width="18" height="18" rx="2.86" ry="2.86"/><circle class="cls-2" cx="11.39" cy="5.56" r="0.93"/><circle class="cls-2" cx="6.61" cy="5.56" r="0.93"/><path class="cls-2" d="M290.53,378.92a.7.7,0,1,1,.57.58A.7.7,0,0,1,290.53,378.92Z" transform="translate(-282.22 -373.25)"/><path class="cls-2" d="M297.55,381.48c.47-.7.2-1-.38-1h0c-.58-1.48-.91-2.32-1-2.49a2.27,2.27,0,0,0-2.13-1.36c-.49,0-1.78-.06-2.83-.06s-2.34,0-2.83.06a2.27,2.27,0,0,0-2.13,1.36c-.08.18-.41,1-1,2.49h0c-.58,0-.85.29-.38,1-.49,1.31-1,3.22-.17,4.57v1.41a.45.45,0,0,0,.45.45h1.3a.46.46,0,0,0,.45-.45v-.59h8.59v.59a.46.46,0,0,0,.45.45h1.3a.45.45,0,0,0,.45-.45V386C298.54,384.7,298,382.79,297.55,381.48Zm-11.1,3.42a.87.87,0,1,1,.87-.87A.87.87,0,0,1,286.45,384.9Zm2.21-.93a.34.34,0,0,1,.34-.34h4.42a.34.34,0,0,1,0,.68H289A.34.34,0,0,1,288.67,384Zm8.19.06a.87.87,0,1,1-.87-.87A.87.87,0,0,1,296.86,384Zm-9.76-5.67c.16-.38.44-.74,1.37-.81.38,0,1.46-.05,2.75-.05s2.38,0,2.75.05c.93.08,1.21.44,1.37.81a14.68,14.68,0,0,1,.82,2.19h-1.33v-.07c0-.26-.62-.46-1.22-.46s-1.22.21-1.22.46v.07h-2.32v-.07c0-.26-.62-.46-1.22-.46s-1.22.21-1.22.46v.07h-1.33A14.57,14.57,0,0,1,287.09,378.36Z" transform="translate(-282.22 -373.25)"/><path class="cls-2" d="M292.14,380.66s0-.5,0-.5c0-.19-.47-.35-.92-.35s-.92.15-.92.35c0,0,0,.47,0,.5Z" transform="translate(-282.22 -373.25)"/><polygon class="cls-3" points="14.01 7.52 3.99 7.52 4.05 7.3 13.95 7.3 14.01 7.52"/></svg>