<svg id="Layer_1" data-name="Layer 1" xmlns="http://www.w3.org/2000/svg" viewBox="0 0 18 18"><defs><style>.cls-1{fill:#66a6b5;}.cls-2{fill:#fff;}</style></defs><title>strat-3</title><rect class="cls-1" width="18" height="18" rx="2.86" ry="2.86"/><polygon class="cls-2" points="13.94 14.99 14.8 14.99 13.61 14.2 13.05 14.2 13.94 14.99"/><polygon class="cls-2" points="4.95 14.2 4.39 14.2 3.2 14.99 4.06 14.99 4.95 14.2"/><polygon class="cls-2" points="12.65 14.99 11.77 14.2 6.23 14.2 5.34 14.99 12.65 14.99"/><polygon class="cls-2" points="5.83 13.63 3.54 15.68 4.32 15.68 6.61 13.63 5.83 13.63"/><polygon class="cls-2" points="11.39 13.63 13.66 15.68 14.44 15.68 12.17 13.63 11.39 13.63"/><path class="cls-2" d="M399.78,376h-7.56a1.59,1.59,0,0,0-1.59,1.59v7.46a1.59,1.59,0,0,0,1.59,1.59h7.56a1.59,1.59,0,0,0,1.59-1.59v-7.46A1.59,1.59,0,0,0,399.78,376Zm-5.17.86a.33.33,0,0,1,.33-.33h2.13a.33.33,0,0,1,.33.33v.92a.33.33,0,0,1-.33.33h-2.13a.33.33,0,0,1-.33-.33ZM392,386a.74.74,0,1,1,.74-.74A.74.74,0,0,1,392,386Zm3.74-3.49h-4a.53.53,0,0,1-.53-.53v-2.76a.53.53,0,0,1,.53-.53h4Zm.43-3.81h4a.53.53,0,0,1,.53.53V382a.53.53,0,0,1-.53.53h-4ZM400,386a.74.74,0,1,1,.74-.74A.74.74,0,0,1,400,386Z" transform="translate(-387 -373.25)"/></svg>