<svg id="Layer_1" data-name="Layer 1" xmlns="http://www.w3.org/2000/svg" viewBox="0 0 18 18"><defs><style>.cls-1{fill:#66a6b5;}.cls-2{fill:#fff;}.cls-3{fill:none;stroke:#fff;stroke-miterlimit:10;stroke-width:0.4px;}</style></defs><title>strat-4</title><rect class="cls-1" width="18" height="18" rx="2.86" ry="2.86"/><path class="cls-2" d="M500.26,376.32,494.08,387a.63.63,0,0,0,.54.94H507a.63.63,0,0,0,.54-.94l-6.18-10.7A.63.63,0,0,0,500.26,376.32Z" transform="translate(-491.78 -373.22)"/><path class="cls-1" d="M501.6,379.8c.09-1.18-2.63-1.85-4.73-2H497l.64,0,1,.1c.34,0,.72.1,1.13.18h.62l-.46-.09c-.47-.08-.9-.12-1.28-.16l-1-.07-.64,0h-.23s7.5-.13,7.56,2-3.91,2.85-3.64,4.62c.21,1.41,5.75,2.85,8,3.37.44.1,0,.23,0,.23h-7.22l-.18-.09c-.24-.12-.54-.28-.87-.47s-.7-.42-1.08-.69l0,0h-.93l0,0c.2.18.4.34.6.49.37.28.75.55,1.08.75l-4,0s-.1-.07-.12-.1c-.54-.59-3.4-2.83-1.57-4.89S501.51,381,501.6,379.8Zm-.21-1.37-.46-.15h-.56a7.24,7.24,0,0,1,1,.31l.26.12h.4A3.94,3.94,0,0,0,501.39,378.43Zm1.12.68a1.78,1.78,0,0,0-.2-.19H502l.08.06a1.79,1.79,0,0,1,.31.28l.09.12h.25A1.41,1.41,0,0,0,502.52,379.11Zm.15,1.43a1.13,1.13,0,0,0,.13-.23.86.86,0,0,0,.07-.27s0,0,0-.07v0s0,0,0,0h0v-.09s0,0,0-.07v0h-.23l0,.09s0,0,0,0v.08h0s0,0,0,0a.6.6,0,0,1-.06.19.87.87,0,0,1-.11.18l-.07.08-.08.08,0,0,0,0h.36Zm-1.34,1c.2-.11.4-.23.6-.37l.34-.25h-.49c-.26.16-.53.3-.81.45l-.35.17Zm-2,1.11.13-.08.83-.46.42-.22h-.79l-.64.33c-.25.13-.5.27-.74.43Zm-.55.35H498a3.56,3.56,0,0,0-.37.35,2.39,2.39,0,0,0-.31.42l-.06.12-.05.13,0,.06,0,.07v.05h0v.06h.48v0l0,0,0-.09,0-.09a1.94,1.94,0,0,1,.24-.34,3.85,3.85,0,0,1,.67-.59Zm-1.61,1.83a2,2,0,0,0,.15.5,3.29,3.29,0,0,0,.48.76h.76c-.12-.11-.23-.22-.34-.34a2.8,2.8,0,0,1-.45-.64,1.46,1.46,0,0,1-.12-.34h-.49Z" transform="translate(-491.78 -373.22)"/><path class="cls-3" d="M494.6,388.64a1.3,1.3,0,0,1-1.13-2l6.18-10.7a1.3,1.3,0,0,1,2.26,0l6.18,10.7a1.3,1.3,0,0,1-1.13,2Z" transform="translate(-491.78 -373.22)"/></svg>