<svg id="Layer_1" data-name="Layer 1" xmlns="http://www.w3.org/2000/svg" viewBox="0 0 18 18"><defs><style>.cls-1{fill:#66a6b5;}.cls-2{fill:#fff;}</style></defs><title>strat-5</title><rect class="cls-1" width="18" height="18" rx="2.86" ry="2.86"/><path class="cls-2" d="M607.73,385.66a1.43,1.43,0,1,0,1.43-1.43A1.43,1.43,0,0,0,607.73,385.66Zm.73,0a.7.7,0,1,1,.7.7A.7.7,0,0,1,608.46,385.66Z" transform="translate(-596.56 -373.25)"/><path class="cls-2" d="M599.82,385.66a1.43,1.43,0,1,0,1.43-1.43A1.43,1.43,0,0,0,599.82,385.66Zm.73,0a.7.7,0,1,1,.7.7A.7.7,0,0,1,600.55,385.66Z" transform="translate(-596.56 -373.25)"/><path class="cls-2" d="M603.69,383.78v1.48a.66.66,0,0,0,.14.41H603a1.77,1.77,0,1,0-3.53,0h-.86v-2.29h5.21A.66.66,0,0,0,603.69,383.78Z" transform="translate(-596.56 -373.25)"/><rect class="cls-2" x="7.35" y="10.08" width="2.31" height="2.36" rx="0.44" ry="0.44"/><path class="cls-2" d="M606.44,383.78v1.48a.66.66,0,0,1-.14.41h1.09a1.77,1.77,0,1,1,3.53,0h1.58v-3.4a.58.58,0,0,0,0-.21l-1.34-2.74a.2.2,0,0,0-.16-.1h-3.37a.11.11,0,0,0-.11.11v4H606.3A.66.66,0,0,1,606.44,383.78Zm1.67-4h2.47l1,2v.13h-3.45Z" transform="translate(-596.56 -373.25)"/><path class="cls-2" d="M606.89,377.41H599a.32.32,0,0,0-.34.29v5.36h8.6v-5.36A.32.32,0,0,0,606.89,377.41Zm-6.8,5.09h-.53V378h.53Zm1.24,0h-.53V378h.53Zm1.24,0H602V378h.53Zm1.24,0h-.53V378h.53Zm1.24,0h-.53V378H605Zm1.24,0h-.53V378h.53Z" transform="translate(-596.56 -373.25)"/></svg>