<svg id="Layer_1" data-name="Layer 1" xmlns="http://www.w3.org/2000/svg" viewBox="0 0 18 18"><defs><style>.cls-1{fill:#66a6b5;}.cls-2,.cls-3{fill:#fff;}.cls-2{fill-rule:evenodd;}</style></defs><title>strat-1</title><rect class="cls-1" width="18" height="18" rx="2.86" ry="2.86"/><path class="cls-2" d="M186.44,376a4.85,4.85,0,0,1,3.41,1.41.39.39,0,1,0,.49-.61,5.59,5.59,0,0,0-7.8,0,.39.39,0,1,0,.49.61,4.85,4.85,0,0,1,3.41-1.41Z" transform="translate(-177.44 -373.25)"/><path class="cls-2" d="M186.44,377.52a3.29,3.29,0,0,1,2.26.91c.45.43.89-.12.6-.51a4,4,0,0,0-5.71,0c-.3.39.14.94.6.51a3.29,3.29,0,0,1,2.26-.91Z" transform="translate(-177.44 -373.25)"/><path class="cls-2" d="M186.44,379.09a1.73,1.73,0,0,1,1.2.5.39.39,0,1,0,.49-.61,2.46,2.46,0,0,0-3.37,0,.39.39,0,1,0,.49.61,1.73,1.73,0,0,1,1.2-.5Z" transform="translate(-177.44 -373.25)"/><path class="cls-3" d="M189,386.82l1,.53a4.12,4.12,0,0,0,.55-1.56l-1.13-.23,0-.5,0-.5,1.1-.35a4.12,4.12,0,0,0-.72-1.49l-1,.64-.37-.33-.37-.33.53-1a4.12,4.12,0,0,0-1.56-.55l-.23,1.13-.5,0-.5,0-.35-1.1a4.12,4.12,0,0,0-1.49.72l.64,1-.33.37-.33.37-1-.53a4.12,4.12,0,0,0-.55,1.56l1.13.23,0,.5,0,.5-1.1.35a4.12,4.12,0,0,0,.72,1.49l1-.64.37.33.37.33-.53,1a4.12,4.12,0,0,0,1.56.55l.23-1.13.5,0,.5,0,.35,1.1a4.12,4.12,0,0,0,1.49-.72l-.64-1,.33-.37Zm-3.08,0a1.68,1.68,0,1,1,2.14-1A1.68,1.68,0,0,1,185.88,386.81Z" transform="translate(-177.44 -373.25)"/></svg>